999
Teka CADited project file
0
SECTION
2
HEADER
9
$ACADVER
1
AC1009
9
$PSLTSCALE
70
1
0
ENDSEC
0
SECTION
2
TABLES
0
TABLE
2
VPORT
70
1
0
VPORT
2
*Active
70
0
10
0.0
20
0.0
11
1.0
21
1.0
12
-20
22
-1000
13
0.0
23
0.0
14
10.0
24
10.0
15
10.0
25
10.0
16
0.0
26
0.0
36
1.0
17
0.0
27
0.0
37
0.0
40
297.0
41
1.92798353909465
42
50.0
43
0.0
44
0.0
50
0.0
51
0.0
71
0
72
100
73
1
74
3
75
1
76
1
77
0
78
0
0
ENDTAB
0
TABLE
2
STYLE
70
1
0
STYLE
5
61
100
AcDbSymbolTableRecord
100
AcDbTextStyleTableRecord
2
TextSytle
70
0
40
0.0
41
1.0
50
0.0
71
0
42
0.2
3
Lucida Console
4

0
ENDTAB
0
TABLE
2
UCS
5
7
100
AcDbSymbolTable
70
0
0
ENDTAB
0
ENDSEC
0
SECTION
2
BLOCKS
0
BLOCK
2
RGFO1
70
0
10
0.0
20
0.0
30
0.0
3
RGFO1
1

0
LINE
8
0
10
0
20
0
11
0
21
-24
0
LINE
8
0
10
0
20
-24
11
48
21
-24
0
LINE
8
0
10
48
20
-24
11
48
21
0
0
LINE
8
0
10
0
20
0
11
48
21
0
0
LINE
8
0
10
24
20
-24
30
0
11
24
21
-32
31
0
0
ENDBLK
0
BLOCK
2
ATI1
70
0
10
0.0
20
0.0
30
0.0
3
ATI1
1

0
LINE
8
0
10
0
20
0
11
0
21
-72
0
LINE
8
0
10
0
20
-72
11
32
21
-72
0
LINE
8
0
10
32
20
-72
11
32
21
0
0
LINE
8
0
10
0
20
0
11
32
21
0
0
LINE
8
0
10
16
20
-16
30
0
11
16
21
-56
31
0
0
LINE
8
0
10
2
20
-37
11
5
21
-40
0
LINE
8
0
10
5
20
-40
11
2
21
-43
0
LINE
8
0
10
0
20
-40
30
0
11
0
21
-40
31
0
0
LINE
8
0
10
0
20
-48
30
0
11
0
21
-48
31
0
0
LINE
8
0
10
0
20
-56
30
0
11
0
21
-56
31
0
0
LINE
8
0
10
0
20
-64
30
0
11
0
21
-64
31
0
0
LINE
8
0
10
8
20
-72
30
0
11
8
21
-72
31
0
0
LINE
8
0
10
16
20
-72
30
0
11
16
21
-72
31
0
0
LINE
8
0
10
24
20
-72
30
0
11
24
21
-72
31
0
0
LINE
8
0
10
32
20
-64
30
0
11
32
21
-64
31
0
0
LINE
8
0
10
32
20
-56
30
0
11
32
21
-56
31
0
0
LINE
8
0
10
32
20
-48
30
0
11
32
21
-48
31
0
0
LINE
8
0
10
32
20
-40
30
0
11
32
21
-40
31
0
0
LINE
8
0
10
32
20
-32
30
0
11
32
21
-32
31
0
0
LINE
8
0
10
32
20
-24
30
0
11
32
21
-24
31
0
0
LINE
8
0
10
32
20
-16
30
0
11
32
21
-16
31
0
0
LINE
8
0
10
32
20
-8
30
0
11
32
21
-8
31
0
0
LINE
8
0
10
24
20
0
30
0
11
24
21
0
31
0
0
LINE
8
0
10
16
20
0
30
0
11
16
21
0
31
0
0
LINE
8
0
10
8
20
0
30
0
11
8
21
0
31
0
0
LINE
8
0
10
0
20
-8
30
0
11
0
21
-8
31
0
0
LINE
8
0
10
0
20
-16
30
0
11
0
21
-16
31
0
0
LINE
8
0
10
0
20
-24
30
0
11
0
21
-24
31
0
0
LINE
8
0
10
0
20
-32
30
0
11
0
21
-32
31
0
0
TEXT
8
0
62
7
10
8
20
-67.5
40
5.625
50
0
1
ATI
7
TextSytle
0
ENDBLK
0
BLOCK
2
T1
70
0
10
0.0
20
0.0
30
0.0
3
T1
1

0
LINE
8
0
10
8
20
0
30
0
11
8
21
-8
31
0
0
LINE
8
0
10
3
20
-16
11
0
21
-16
0
LINE
8
0
10
0
20
-16
11
0
21
-8
0
LINE
8
0
10
0
20
-8
11
16
21
-8
0
LINE
8
0
10
16
20
-8
11
16
21
-16
0
LINE
8
0
10
16
20
-16
11
13
21
-16
0
LINE
8
0
10
5
20
-16
30
0
11
11
21
-16
31
0
0
LINE
8
0
10
8
20
-16
30
0
11
8
21
-8
31
0
0
CIRCLE
8
0
10
4
20
-12
40
2
0
CIRCLE
8
0
10
12
20
-12
40
2
0
ENDBLK
0
ENDSEC
0
SECTION
2
ENTITIES
0
INSERT
8
0
2
RGFO1
10
128
20
-128
30
0
50
0
0
INSERT
8
0
2
ATI1
10
256
20
-184
30
0
50
0
0
LINE
8
0
10
152
20
-160
11
152
21
-224
0
LINE
8
0
10
152
20
-224
11
256
21
-224
0
INSERT
8
0
2
T1
10
400
20
-296
30
0
50
0
0
LINE
8
0
10
288
20
-224
11
408
21
-224
0
LINE
8
0
10
408
20
-224
11
408
21
-296
0
TEXT
8
0
62
5
10
128
20
-125
40
3.75
50
0
1
RGFO1
7
TextSytle
0
TEXT
8
0
62
5
10
256
20
-173
40
3.75
50
0
1
ATI1
7
TextSytle
0
TEXT
8
0
62
5
10
416
20
-317
40
3.75
50
0
1
x2
7
TextSytle
0
TEXT
8
0
62
5
10
416
20
-323
40
3.75
50
0
1
2901111
7
TextSytle
0
TEXT
8
0
62
5
10
416
20
-329
40
3.75
50
0
1

7
TextSytle
0
TEXT
8
0
62
5
10
288
20
-229
40
3.75
50
0
1
6.14m(2901135)
7
TextSytle
0
ENDSEC
0
EOF
