999
Teka CADited project file
0
SECTION
2
HEADER
9
$ACADVER
1
AC1009
9
$PSLTSCALE
70
1
0
ENDSEC
0
SECTION
2
TABLES
0
TABLE
2
VPORT
70
1
0
VPORT
2
*Active
70
0
10
0.0
20
0.0
11
1.0
21
1.0
12
-20
22
-1000
13
0.0
23
0.0
14
10.0
24
10.0
15
10.0
25
10.0
16
0.0
26
0.0
36
1.0
17
0.0
27
0.0
37
0.0
40
297.0
41
1.92798353909465
42
50.0
43
0.0
44
0.0
50
0.0
51
0.0
71
0
72
100
73
1
74
3
75
1
76
1
77
0
78
0
0
ENDTAB
0
TABLE
2
STYLE
70
1
0
STYLE
5
61
100
AcDbSymbolTableRecord
100
AcDbTextStyleTableRecord
2
TextSytle
70
0
40
0.0
41
1.0
50
0.0
71
0
42
0.2
3
Lucida Console
4

0
ENDTAB
0
TABLE
2
UCS
5
7
100
AcDbSymbolTable
70
0
0
ENDTAB
0
ENDSEC
0
SECTION
2
BLOCKS
0
BLOCK
2
ATI1
70
0
10
0.0
20
0.0
30
0.0
3
ATI1
1

0
LINE
8
0
10
0
20
0
11
0
21
-72
0
LINE
8
0
10
0
20
-72
11
32
21
-72
0
LINE
8
0
10
32
20
-72
11
32
21
0
0
LINE
8
0
10
0
20
0
11
32
21
0
0
LINE
8
0
10
16
20
-16
30
0
11
16
21
-56
31
0
0
LINE
8
0
10
2
20
-37
11
5
21
-40
0
LINE
8
0
10
5
20
-40
11
2
21
-43
0
LINE
8
0
10
0
20
-40
30
0
11
0
21
-40
31
0
0
LINE
8
0
10
0
20
-48
30
0
11
0
21
-48
31
0
0
LINE
8
0
10
0
20
-56
30
0
11
0
21
-56
31
0
0
LINE
8
0
10
0
20
-64
30
0
11
0
21
-64
31
0
0
LINE
8
0
10
8
20
-72
30
0
11
8
21
-72
31
0
0
LINE
8
0
10
16
20
-72
30
0
11
16
21
-72
31
0
0
LINE
8
0
10
24
20
-72
30
0
11
24
21
-72
31
0
0
LINE
8
0
10
32
20
-64
30
0
11
32
21
-64
31
0
0
LINE
8
0
10
32
20
-56
30
0
11
32
21
-56
31
0
0
LINE
8
0
10
32
20
-48
30
0
11
32
21
-48
31
0
0
LINE
8
0
10
32
20
-40
30
0
11
32
21
-40
31
0
0
LINE
8
0
10
32
20
-32
30
0
11
32
21
-32
31
0
0
LINE
8
0
10
32
20
-24
30
0
11
32
21
-24
31
0
0
LINE
8
0
10
32
20
-16
30
0
11
32
21
-16
31
0
0
LINE
8
0
10
32
20
-8
30
0
11
32
21
-8
31
0
0
LINE
8
0
10
24
20
0
30
0
11
24
21
0
31
0
0
LINE
8
0
10
16
20
0
30
0
11
16
21
0
31
0
0
LINE
8
0
10
8
20
0
30
0
11
8
21
0
31
0
0
LINE
8
0
10
0
20
-8
30
0
11
0
21
-8
31
0
0
LINE
8
0
10
0
20
-16
30
0
11
0
21
-16
31
0
0
LINE
8
0
10
0
20
-24
30
0
11
0
21
-24
31
0
0
LINE
8
0
10
0
20
-32
30
0
11
0
21
-32
31
0
0
TEXT
8
0
62
7
10
8
20
-67.5
40
5.625
50
0
1
ATI
7
TextSytle
0
ENDBLK
0
BLOCK
2
T1
70
0
10
0.0
20
0.0
30
0.0
3
T1
1

0
LINE
8
0
10
3
20
-24
11
3
21
-15
0
LINE
8
0
10
3
20
-15
11
8
21
-8
0
LINE
8
0
10
8
20
-8
11
13
21
-15
0
LINE
8
0
10
13
20
-15
11
13
21
-24
0
LINE
8
0
10
3
20
-15
30
0
11
13
21
-15
31
0
0
LINE
8
0
10
8
20
0
30
0
11
8
21
-8
31
0
0
ENDBLK
0
BLOCK
2
T2
70
0
10
0.0
20
0.0
30
0.0
3
T2
1

0
LINE
8
0
10
3
20
-24
11
3
21
-15
0
LINE
8
0
10
3
20
-15
11
8
21
-8
0
LINE
8
0
10
8
20
-8
11
13
21
-15
0
LINE
8
0
10
13
20
-15
11
13
21
-24
0
LINE
8
0
10
3
20
-15
30
0
11
13
21
-15
31
0
0
LINE
8
0
10
8
20
0
30
0
11
8
21
-8
31
0
0
ENDBLK
0
BLOCK
2
T3
70
0
10
0.0
20
0.0
30
0.0
3
T3
1

0
LINE
8
0
10
3
20
-24
11
3
21
-15
0
LINE
8
0
10
3
20
-15
11
8
21
-8
0
LINE
8
0
10
8
20
-8
11
13
21
-15
0
LINE
8
0
10
13
20
-15
11
13
21
-24
0
LINE
8
0
10
3
20
-15
30
0
11
13
21
-15
31
0
0
LINE
8
0
10
8
20
0
30
0
11
8
21
-8
31
0
0
ENDBLK
0
BLOCK
2
T4
70
0
10
0.0
20
0.0
30
0.0
3
T4
1

0
LINE
8
0
10
3
20
-24
11
3
21
-15
0
LINE
8
0
10
3
20
-15
11
8
21
-8
0
LINE
8
0
10
8
20
-8
11
13
21
-15
0
LINE
8
0
10
13
20
-15
11
13
21
-24
0
LINE
8
0
10
3
20
-15
30
0
11
13
21
-15
31
0
0
LINE
8
0
10
8
20
0
30
0
11
8
21
-8
31
0
0
ENDBLK
0
BLOCK
2
T5
70
0
10
0.0
20
0.0
30
0.0
3
T5
1

0
LINE
8
0
10
3
20
-24
11
3
21
-15
0
LINE
8
0
10
3
20
-15
11
8
21
-8
0
LINE
8
0
10
8
20
-8
11
13
21
-15
0
LINE
8
0
10
13
20
-15
11
13
21
-24
0
LINE
8
0
10
3
20
-15
30
0
11
13
21
-15
31
0
0
LINE
8
0
10
8
20
0
30
0
11
8
21
-8
31
0
0
ENDBLK
0
BLOCK
2
T6
70
0
10
0.0
20
0.0
30
0.0
3
T6
1

0
LINE
8
0
10
3
20
-24
11
3
21
-15
0
LINE
8
0
10
3
20
-15
11
8
21
-8
0
LINE
8
0
10
8
20
-8
11
13
21
-15
0
LINE
8
0
10
13
20
-15
11
13
21
-24
0
LINE
8
0
10
3
20
-15
30
0
11
13
21
-15
31
0
0
LINE
8
0
10
8
20
0
30
0
11
8
21
-8
31
0
0
ENDBLK
0
BLOCK
2
T7
70
0
10
0.0
20
0.0
30
0.0
3
T7
1

0
LINE
8
0
10
3
20
-24
11
3
21
-15
0
LINE
8
0
10
3
20
-15
11
8
21
-8
0
LINE
8
0
10
8
20
-8
11
13
21
-15
0
LINE
8
0
10
13
20
-15
11
13
21
-24
0
LINE
8
0
10
3
20
-15
30
0
11
13
21
-15
31
0
0
LINE
8
0
10
8
20
0
30
0
11
8
21
-8
31
0
0
ENDBLK
0
BLOCK
2
T8
70
0
10
0.0
20
0.0
30
0.0
3
T8
1

0
LINE
8
0
10
3
20
-24
11
3
21
-15
0
LINE
8
0
10
3
20
-15
11
8
21
-8
0
LINE
8
0
10
8
20
-8
11
13
21
-15
0
LINE
8
0
10
13
20
-15
11
13
21
-24
0
LINE
8
0
10
3
20
-15
30
0
11
13
21
-15
31
0
0
LINE
8
0
10
8
20
0
30
0
11
8
21
-8
31
0
0
ENDBLK
0
BLOCK
2
T9
70
0
10
0.0
20
0.0
30
0.0
3
T9
1

0
LINE
8
0
10
3
20
-24
11
3
21
-15
0
LINE
8
0
10
3
20
-15
11
8
21
-8
0
LINE
8
0
10
8
20
-8
11
13
21
-15
0
LINE
8
0
10
13
20
-15
11
13
21
-24
0
LINE
8
0
10
3
20
-15
30
0
11
13
21
-15
31
0
0
LINE
8
0
10
8
20
0
30
0
11
8
21
-8
31
0
0
ENDBLK
0
BLOCK
2
T10
70
0
10
0.0
20
0.0
30
0.0
3
T10
1

0
LINE
8
0
10
3
20
-24
11
3
21
-15
0
LINE
8
0
10
3
20
-15
11
8
21
-8
0
LINE
8
0
10
8
20
-8
11
13
21
-15
0
LINE
8
0
10
13
20
-15
11
13
21
-24
0
LINE
8
0
10
3
20
-15
30
0
11
13
21
-15
31
0
0
LINE
8
0
10
8
20
0
30
0
11
8
21
-8
31
0
0
ENDBLK
0
BLOCK
2
T11
70
0
10
0.0
20
0.0
30
0.0
3
T11
1

0
LINE
8
0
10
3
20
-24
11
3
21
-15
0
LINE
8
0
10
3
20
-15
11
8
21
-8
0
LINE
8
0
10
8
20
-8
11
13
21
-15
0
LINE
8
0
10
13
20
-15
11
13
21
-24
0
LINE
8
0
10
3
20
-15
30
0
11
13
21
-15
31
0
0
LINE
8
0
10
8
20
0
30
0
11
8
21
-8
31
0
0
ENDBLK
0
BLOCK
2
T12
70
0
10
0.0
20
0.0
30
0.0
3
T12
1

0
LINE
8
0
10
3
20
-24
11
3
21
-15
0
LINE
8
0
10
3
20
-15
11
8
21
-8
0
LINE
8
0
10
8
20
-8
11
13
21
-15
0
LINE
8
0
10
13
20
-15
11
13
21
-24
0
LINE
8
0
10
3
20
-15
30
0
11
13
21
-15
31
0
0
LINE
8
0
10
8
20
0
30
0
11
8
21
-8
31
0
0
ENDBLK
0
BLOCK
2
RGPC1
70
0
10
0.0
20
0.0
30
0.0
3
RGPC1
1

0
LINE
8
0
10
0
20
0
11
0
21
-24
0
LINE
8
0
10
0
20
-24
11
48
21
-24
0
LINE
8
0
10
48
20
-24
11
48
21
0
0
LINE
8
0
10
0
20
0
11
48
21
0
0
LINE
8
0
10
24
20
-24
30
0
11
24
21
-32
31
0
0
ENDBLK
0
BLOCK
2
T13
70
0
10
0.0
20
0.0
30
0.0
3
T13
1

0
LINE
8
0
10
3
20
-24
11
3
21
-15
0
LINE
8
0
10
3
20
-15
11
8
21
-8
0
LINE
8
0
10
8
20
-8
11
13
21
-15
0
LINE
8
0
10
13
20
-15
11
13
21
-24
0
LINE
8
0
10
3
20
-15
30
0
11
13
21
-15
31
0
0
LINE
8
0
10
8
20
0
30
0
11
8
21
-8
31
0
0
ENDBLK
0
BLOCK
2
T14
70
0
10
0.0
20
0.0
30
0.0
3
T14
1

0
LINE
8
0
10
3
20
-24
11
3
21
-15
0
LINE
8
0
10
3
20
-15
11
8
21
-8
0
LINE
8
0
10
8
20
-8
11
13
21
-15
0
LINE
8
0
10
13
20
-15
11
13
21
-24
0
LINE
8
0
10
3
20
-15
30
0
11
13
21
-15
31
0
0
LINE
8
0
10
8
20
0
30
0
11
8
21
-8
31
0
0
ENDBLK
0
ENDSEC
0
SECTION
2
ENTITIES
0
INSERT
8
0
2
ATI1
10
448
20
-208
30
0
50
0
0
INSERT
8
0
2
T1
10
704
20
-312
30
0
50
0
0
INSERT
8
0
2
T2
10
736
20
-312
30
0
50
0
0
INSERT
8
0
2
T3
10
672
20
-312
30
0
50
0
0
INSERT
8
0
2
T4
10
640
20
-312
30
0
50
0
0
INSERT
8
0
2
T5
10
768
20
-312
30
0
50
0
0
INSERT
8
0
2
T6
10
400
20
-312
30
0
50
0
0
INSERT
8
0
2
T7
10
336
20
-312
30
0
50
0
0
INSERT
8
0
2
T8
10
544
20
-312
30
0
50
0
0
INSERT
8
0
2
T9
10
576
20
-312
30
0
50
0
0
INSERT
8
0
2
T10
10
608
20
-312
30
0
50
0
0
INSERT
8
0
2
T11
10
512
20
-312
30
0
50
0
0
INSERT
8
0
2
T12
10
368
20
-312
30
0
50
0
0
LINE
8
0
10
480
20
-248
11
648
21
-248
0
LINE
8
0
10
648
20
-248
11
648
21
-312
0
LINE
8
0
10
480
20
-240
11
680
21
-240
0
LINE
8
0
10
680
20
-240
11
680
21
-312
0
LINE
8
0
10
480
20
-232
11
712
21
-232
0
LINE
8
0
10
712
20
-232
11
712
21
-312
0
LINE
8
0
10
480
20
-224
11
744
21
-224
0
LINE
8
0
10
744
20
-224
11
744
21
-312
0
LINE
8
0
10
480
20
-216
11
776
21
-216
0
LINE
8
0
10
776
20
-216
11
776
21
-312
0
LINE
8
0
10
480
20
-272
11
552
21
-272
0
LINE
8
0
10
552
20
-272
11
552
21
-312
0
LINE
8
0
10
480
20
-264
11
584
21
-264
0
LINE
8
0
10
584
20
-264
11
584
21
-312
0
LINE
8
0
10
480
20
-256
11
616
21
-256
0
LINE
8
0
10
616
20
-256
11
616
21
-312
0
LINE
8
0
10
472
20
-280
11
472
21
-304
0
LINE
8
0
10
472
20
-304
11
520
21
-304
0
LINE
8
0
10
520
20
-304
11
520
21
-312
0
LINE
8
0
10
456
20
-280
11
456
21
-304
0
LINE
8
0
10
456
20
-304
11
408
21
-304
0
LINE
8
0
10
408
20
-304
11
408
21
-312
0
LINE
8
0
10
448
20
-272
11
376
21
-272
0
LINE
8
0
10
376
20
-272
11
376
21
-312
0
LINE
8
0
10
376
20
-312
11
376
21
-312
0
LINE
8
0
10
376
20
-312
11
376
21
-312
0
LINE
8
0
10
448
20
-264
11
344
21
-264
0
LINE
8
0
10
344
20
-264
11
344
21
-312
0
INSERT
8
0
2
RGPC1
10
328
20
-208
30
0
50
0
0
LINE
8
0
10
352
20
-240
11
352
21
-248
0
LINE
8
0
10
352
20
-248
11
448
21
-248
0
TEXT
8
0
62
5
10
416
20
-221
40
3.75
50
0
1
ATI1
7
TextSytle
0
TEXT
8
0
62
5
10
416
20
-227
40
3.75
50
0
1
2901076
7
TextSytle
0
TEXT
8
0
62
5
10
720
20
-341
40
3.75
50
0
1
x1
7
TextSytle
0
TEXT
8
0
62
5
10
720
20
-347
40
3.75
50
0
1
2901117
7
TextSytle
0
TEXT
8
0
62
5
10
720
20
-353
40
3.75
50
0
1

7
TextSytle
0
TEXT
8
0
62
5
10
752
20
-341
40
3.75
50
0
1
x1
7
TextSytle
0
TEXT
8
0
62
5
10
752
20
-347
40
3.75
50
0
1
2901117
7
TextSytle
0
TEXT
8
0
62
5
10
752
20
-353
40
3.75
50
0
1

7
TextSytle
0
TEXT
8
0
62
5
10
688
20
-341
40
3.75
50
0
1
x1
7
TextSytle
0
TEXT
8
0
62
5
10
688
20
-347
40
3.75
50
0
1
2901117
7
TextSytle
0
TEXT
8
0
62
5
10
688
20
-353
40
3.75
50
0
1

7
TextSytle
0
TEXT
8
0
62
5
10
656
20
-341
40
3.75
50
0
1
x1
7
TextSytle
0
TEXT
8
0
62
5
10
656
20
-347
40
3.75
50
0
1
2901117
7
TextSytle
0
TEXT
8
0
62
5
10
656
20
-353
40
3.75
50
0
1

7
TextSytle
0
TEXT
8
0
62
5
10
784
20
-341
40
3.75
50
0
1
x1
7
TextSytle
0
TEXT
8
0
62
5
10
784
20
-347
40
3.75
50
0
1
2901117
7
TextSytle
0
TEXT
8
0
62
5
10
784
20
-353
40
3.75
50
0
1

7
TextSytle
0
TEXT
8
0
62
5
10
416
20
-341
40
3.75
50
0
1
x1
7
TextSytle
0
TEXT
8
0
62
5
10
416
20
-347
40
3.75
50
0
1
2901117
7
TextSytle
0
TEXT
8
0
62
5
10
416
20
-353
40
3.75
50
0
1

7
TextSytle
0
TEXT
8
0
62
5
10
352
20
-341
40
3.75
50
0
1
x1
7
TextSytle
0
TEXT
8
0
62
5
10
352
20
-347
40
3.75
50
0
1
2901117
7
TextSytle
0
TEXT
8
0
62
5
10
352
20
-353
40
3.75
50
0
1

7
TextSytle
0
TEXT
8
0
62
5
10
560
20
-341
40
3.75
50
0
1
x1
7
TextSytle
0
TEXT
8
0
62
5
10
560
20
-347
40
3.75
50
0
1
2901117
7
TextSytle
0
TEXT
8
0
62
5
10
560
20
-353
40
3.75
50
0
1

7
TextSytle
0
TEXT
8
0
62
5
10
592
20
-341
40
3.75
50
0
1
x1
7
TextSytle
0
TEXT
8
0
62
5
10
592
20
-347
40
3.75
50
0
1
2901117
7
TextSytle
0
TEXT
8
0
62
5
10
592
20
-353
40
3.75
50
0
1

7
TextSytle
0
TEXT
8
0
62
5
10
624
20
-341
40
3.75
50
0
1
x1
7
TextSytle
0
TEXT
8
0
62
5
10
624
20
-347
40
3.75
50
0
1
2901117
7
TextSytle
0
TEXT
8
0
62
5
10
624
20
-353
40
3.75
50
0
1

7
TextSytle
0
TEXT
8
0
62
5
10
528
20
-341
40
3.75
50
0
1
x1
7
TextSytle
0
TEXT
8
0
62
5
10
528
20
-347
40
3.75
50
0
1
2901117
7
TextSytle
0
TEXT
8
0
62
5
10
528
20
-353
40
3.75
50
0
1

7
TextSytle
0
TEXT
8
0
62
5
10
384
20
-341
40
3.75
50
0
1
x1
7
TextSytle
0
TEXT
8
0
62
5
10
384
20
-347
40
3.75
50
0
1
2901117
7
TextSytle
0
TEXT
8
0
62
5
10
384
20
-353
40
3.75
50
0
1

7
TextSytle
0
TEXT
8
0
62
5
10
480
20
-253
40
3.75
50
0
1
(290889)x1
7
TextSytle
0
TEXT
8
0
62
5
10
480
20
-245
40
3.75
50
0
1
(290889)x1
7
TextSytle
0
TEXT
8
0
62
5
10
480
20
-237
40
3.75
50
0
1
(290889)x1
7
TextSytle
0
TEXT
8
0
62
5
10
480
20
-229
40
3.75
50
0
1
(290889)x1
7
TextSytle
0
TEXT
8
0
62
5
10
480
20
-221
40
3.75
50
0
1
(290889)x1
7
TextSytle
0
TEXT
8
0
62
5
10
480
20
-277
40
3.75
50
0
1
(290889)x1
7
TextSytle
0
TEXT
8
0
62
5
10
480
20
-269
40
3.75
50
0
1
(290889)x1
7
TextSytle
0
TEXT
8
0
62
5
10
480
20
-261
40
3.75
50
0
1
(290889)x1
7
TextSytle
0
TEXT
8
0
62
5
10
472
20
-301
40
3.75
50
0
1
(290889)x1
7
TextSytle
0
TEXT
8
0
62
5
10
416
20
-301
40
3.75
50
0
1
(290889)x1
7
TextSytle
0
TEXT
8
0
62
5
10
384
20
-285
40
3.75
50
0
1
(290889)x1
7
TextSytle
0
TEXT
8
0
62
5
10
344
20
-261
40
3.75
50
0
1
(290889)x1
7
TextSytle
0
TEXT
8
0
62
5
10
328
20
-205
40
3.75
50
0
1
RGPC1
7
TextSytle
0
INSERT
8
0
2
T13
10
384
20
-168
30
0
50
0
0
INSERT
8
0
2
T14
10
528
20
-168
30
0
50
0
0
LINE
8
0
10
456
20
-208
11
456
21
-184
0
LINE
8
0
10
456
20
-184
11
456
21
-168
0
LINE
8
0
10
456
20
-168
11
392
21
-168
0
LINE
8
0
10
472
20
-208
11
472
21
-168
0
LINE
8
0
10
472
20
-168
11
536
21
-168
0
TEXT
8
0
62
5
10
472
20
-213
40
3.75
50
0
1
(290889)x1
7
TextSytle
0
TEXT
8
0
62
5
10
544
20
-197
40
3.75
50
0
1
x1
7
TextSytle
0
TEXT
8
0
62
5
10
544
20
-203
40
3.75
50
0
1
2901117
7
TextSytle
0
TEXT
8
0
62
5
10
544
20
-209
40
3.75
50
0
1

7
TextSytle
0
TEXT
8
0
62
5
10
456
20
-213
40
3.75
50
0
1
(290889)x1
7
TextSytle
0
TEXT
8
0
62
5
10
400
20
-197
40
3.75
50
0
1
x1
7
TextSytle
0
TEXT
8
0
62
5
10
400
20
-203
40
3.75
50
0
1
2901117
7
TextSytle
0
TEXT
8
0
62
5
10
400
20
-209
40
3.75
50
0
1

7
TextSytle
0
ENDSEC
0
EOF
