999
Teka CADited project file
0
SECTION
2
HEADER
9
$ACADVER
1
AC1009
9
$PSLTSCALE
70
1
0
ENDSEC
0
SECTION
2
TABLES
0
TABLE
2
VPORT
70
1
0
VPORT
2
*Active
70
0
10
0.0
20
0.0
11
1.0
21
1.0
12
-20
22
-1000
13
0.0
23
0.0
14
10.0
24
10.0
15
10.0
25
10.0
16
0.0
26
0.0
36
1.0
17
0.0
27
0.0
37
0.0
40
297.0
41
1.92798353909465
42
50.0
43
0.0
44
0.0
50
0.0
51
0.0
71
0
72
100
73
1
74
3
75
1
76
1
77
0
78
0
0
ENDTAB
0
TABLE
2
STYLE
70
1
0
STYLE
5
61
100
AcDbSymbolTableRecord
100
AcDbTextStyleTableRecord
2
TextSytle
70
0
40
0.0
41
1.0
50
0.0
71
0
42
0.2
3
Lucida Console
4

0
ENDTAB
0
TABLE
2
UCS
5
7
100
AcDbSymbolTable
70
0
0
ENDTAB
0
ENDSEC
0
SECTION
2
BLOCKS
0
BLOCK
2
RGCC1
70
0
10
0.0
20
0.0
30
0.0
3
RGCC1
1

0
LINE
8
0
10
0
20
0
11
0
21
-48
0
LINE
8
0
10
0
20
-48
11
24
21
-48
0
LINE
8
0
10
24
20
-48
11
24
21
0
0
LINE
8
0
10
0
20
0
11
24
21
0
0
LINE
8
0
10
24
20
-24
30
0
11
32
21
-24
31
0
0
ENDBLK
0
BLOCK
2
ATI1
70
0
10
0.0
20
0.0
30
0.0
3
ATI1
1

0
LINE
8
0
10
0
20
0
11
0
21
-72
0
LINE
8
0
10
0
20
-72
11
32
21
-72
0
LINE
8
0
10
32
20
-72
11
32
21
0
0
LINE
8
0
10
0
20
0
11
32
21
0
0
LINE
8
0
10
16
20
-16
30
0
11
16
21
-56
31
0
0
LINE
8
0
10
2
20
-37
11
5
21
-40
0
LINE
8
0
10
5
20
-40
11
2
21
-43
0
LINE
8
0
10
0
20
-40
30
0
11
0
21
-40
31
0
0
LINE
8
0
10
16
20
-72
30
0
11
16
21
-72
31
0
0
LINE
8
0
10
24
20
-72
30
0
11
24
21
-72
31
0
0
LINE
8
0
10
32
20
-64
30
0
11
32
21
-64
31
0
0
LINE
8
0
10
32
20
-56
30
0
11
32
21
-56
31
0
0
LINE
8
0
10
32
20
-48
30
0
11
32
21
-48
31
0
0
LINE
8
0
10
32
20
-40
30
0
11
32
21
-40
31
0
0
LINE
8
0
10
32
20
-32
30
0
11
32
21
-32
31
0
0
LINE
8
0
10
32
20
-24
30
0
11
32
21
-24
31
0
0
LINE
8
0
10
32
20
-16
30
0
11
32
21
-16
31
0
0
LINE
8
0
10
32
20
-8
30
0
11
32
21
-8
31
0
0
LINE
8
0
10
24
20
0
30
0
11
24
21
0
31
0
0
LINE
8
0
10
16
20
0
30
0
11
16
21
0
31
0
0
TEXT
8
0
62
7
10
8
20
-67.5
40
5.625
50
0
1
ATI
7
TextSytle
0
ENDBLK
0
BLOCK
2
T1
70
0
10
0.0
20
0.0
30
0.0
3
T1
1

0
LINE
8
0
10
8
20
0
30
0
11
8
21
-8
31
0
0
LINE
8
0
10
0
20
-16
11
0
21
-8
0
LINE
8
0
10
0
20
-8
11
16
21
-8
0
LINE
8
0
10
16
20
-8
11
16
21
-16
0
LINE
8
0
10
4
20
-12
30
0
11
12
21
-12
31
0
0
ENDBLK
0
BLOCK
2
T2
70
0
10
0.0
20
0.0
30
0.0
3
T2
1

0
LINE
8
0
10
8
20
0
30
0
11
8
21
-8
31
0
0
LINE
8
0
10
0
20
-16
11
0
21
-8
0
LINE
8
0
10
0
20
-8
11
16
21
-8
0
LINE
8
0
10
16
20
-8
11
16
21
-16
0
LINE
8
0
10
4
20
-12
30
0
11
12
21
-12
31
0
0
ENDBLK
0
BLOCK
2
T3
70
0
10
0.0
20
0.0
30
0.0
3
T3
1

0
LINE
8
0
10
8
20
0
30
0
11
8
21
-8
31
0
0
LINE
8
0
10
0
20
-16
11
0
21
-8
0
LINE
8
0
10
0
20
-8
11
16
21
-8
0
LINE
8
0
10
16
20
-8
11
16
21
-16
0
LINE
8
0
10
4
20
-12
30
0
11
12
21
-12
31
0
0
ENDBLK
0
BLOCK
2
T4
70
0
10
0.0
20
0.0
30
0.0
3
T4
1

0
LINE
8
0
10
8
20
0
30
0
11
8
21
-8
31
0
0
LINE
8
0
10
0
20
-16
11
0
21
-8
0
LINE
8
0
10
0
20
-8
11
16
21
-8
0
LINE
8
0
10
16
20
-8
11
16
21
-16
0
LINE
8
0
10
4
20
-12
30
0
11
12
21
-12
31
0
0
ENDBLK
0
BLOCK
2
T5
70
0
10
0.0
20
0.0
30
0.0
3
T5
1

0
LINE
8
0
10
8
20
0
30
0
11
8
21
-8
31
0
0
LINE
8
0
10
0
20
-16
11
0
21
-8
0
LINE
8
0
10
0
20
-8
11
16
21
-8
0
LINE
8
0
10
16
20
-8
11
16
21
-16
0
LINE
8
0
10
4
20
-12
30
0
11
12
21
-12
31
0
0
ENDBLK
0
BLOCK
2
T6
70
0
10
0.0
20
0.0
30
0.0
3
T6
1

0
LINE
8
0
10
8
20
0
30
0
11
8
21
-8
31
0
0
LINE
8
0
10
0
20
-16
11
0
21
-8
0
LINE
8
0
10
0
20
-8
11
16
21
-8
0
LINE
8
0
10
16
20
-8
11
16
21
-16
0
LINE
8
0
10
4
20
-12
30
0
11
12
21
-12
31
0
0
ENDBLK
0
BLOCK
2
T9
70
0
10
0.0
20
0.0
30
0.0
3
T9
1

0
LINE
8
0
10
8
20
0
30
0
11
8
21
-8
31
0
0
LINE
8
0
10
0
20
-16
11
0
21
-8
0
LINE
8
0
10
0
20
-8
11
16
21
-8
0
LINE
8
0
10
16
20
-8
11
16
21
-16
0
LINE
8
0
10
4
20
-12
30
0
11
12
21
-12
31
0
0
ENDBLK
0
BLOCK
2
T10
70
0
10
0.0
20
0.0
30
0.0
3
T10
1

0
LINE
8
0
10
8
20
0
30
0
11
8
21
-8
31
0
0
LINE
8
0
10
0
20
-16
11
0
21
-8
0
LINE
8
0
10
0
20
-8
11
16
21
-8
0
LINE
8
0
10
16
20
-8
11
16
21
-16
0
LINE
8
0
10
4
20
-12
30
0
11
12
21
-12
31
0
0
ENDBLK
0
BLOCK
2
T11
70
0
10
0.0
20
0.0
30
0.0
3
T11
1

0
LINE
8
0
10
8
20
0
30
0
11
8
21
-8
31
0
0
LINE
8
0
10
0
20
-16
11
0
21
-8
0
LINE
8
0
10
0
20
-8
11
16
21
-8
0
LINE
8
0
10
16
20
-8
11
16
21
-16
0
LINE
8
0
10
4
20
-12
30
0
11
12
21
-12
31
0
0
ENDBLK
0
BLOCK
2
HE1
70
0
10
0.0
20
0.0
30
0.0
3
HE1
1

0
LINE
8
0
10
0
20
0
11
0
21
-120
0
LINE
8
0
10
0
20
-120
11
96
21
-120
0
LINE
8
0
10
96
20
-120
11
96
21
0
0
LINE
8
0
10
0
20
0
11
96
21
0
0
LINE
8
0
10
96
20
-106.3
30
0
11
0
21
-106.3
31
0
0
LINE
8
0
10
34
20
-53
30
0
11
34
21
-13
31
0
0
LINE
8
0
10
27.2
20
-18.8
30
0
11
59.2
21
-18.8
31
0
0
LINE
8
0
10
32
20
-16.4
30
0
11
22.4
21
-21.2
31
0
0
LINE
8
0
10
39.2
20
-16.4
30
0
11
29.6
21
-21.2
31
0
0
LINE
8
0
10
47.2
20
-16.4
30
0
11
37.6
21
-21.2
31
0
0
LINE
8
0
10
54.6
20
-16.4
30
0
11
45
21
-21.2
31
0
0
LINE
8
0
10
64
20
-16.4
30
0
11
54.4
21
-21.2
31
0
0
LINE
8
0
10
24.1
20
-47.8
11
24.1
21
-36.6
0
LINE
8
0
10
24.1
20
-36.6
11
33.1
21
-36.6
0
LINE
8
0
10
33.1
20
-36.6
11
33.1
21
-55.6
0
LINE
8
0
10
38.7
20
-60.7
11
18.5
21
-42.2
0
LINE
8
0
10
18.5
20
-42.2
11
4.8
21
-42.2
0
LINE
8
0
10
96
20
0
30
0
11
0
21
-106.3
31
0
0
LINE
8
0
10
40.5
20
-46
11
42
21
-42.5
0
LINE
8
0
10
42
20
-42.5
11
41
21
-40
0
LINE
8
0
10
39.5
20
-46
11
39.5
21
-48
0
LINE
8
0
10
39.5
20
-48
11
34.5
21
-50
0
CIRCLE
8
0
10
40.5
20
-39
40
6.5
0
LINE
8
0
10
44.3
20
-68.3
11
44.3
21
-91.60001
0
LINE
8
0
10
44.3
20
-91.60001
11
49.6
21
-91.60001
0
LINE
8
0
10
49.6
20
-91.60001
11
49.6
21
-68.3
0
LINE
8
0
10
44.3
20
-68.3
11
49.6
21
-68.3
0
LINE
8
0
10
49.6
20
-68.6
11
49.6
21
-91.39999
0
LINE
8
0
10
49.6
20
-91.39999
11
72.8
21
-91.39999
0
LINE
8
0
10
72.8
20
-91.39999
11
72.8
21
-68.6
0
LINE
8
0
10
49.6
20
-68.6
11
72.8
21
-68.6
0
LINE
8
0
10
73
20
-68.1
11
73
21
-91.8
0
LINE
8
0
10
73
20
-91.8
11
89.3
21
-91.8
0
LINE
8
0
10
89.3
20
-91.8
11
89.3
21
-68.1
0
LINE
8
0
10
73
20
-68.1
11
89.3
21
-68.1
0
LINE
8
0
10
49.9
20
-68.9
11
49.9
21
-91.10001
0
LINE
8
0
10
49.9
20
-91.10001
11
54.3
21
-91.10001
0
LINE
8
0
10
54.3
20
-91.10001
11
54.3
21
-68.9
0
LINE
8
0
10
49.9
20
-68.9
11
54.3
21
-68.9
0
LINE
8
0
10
54.5
20
-68.9
11
54.5
21
-91.10001
0
LINE
8
0
10
54.5
20
-91.10001
11
58.9
21
-91.10001
0
LINE
8
0
10
58.9
20
-91.10001
11
58.9
21
-68.9
0
LINE
8
0
10
54.5
20
-68.9
11
58.9
21
-68.9
0
LINE
8
0
10
59.1
20
-68.9
11
59.1
21
-91.10001
0
LINE
8
0
10
59.1
20
-91.10001
11
63.5
21
-91.10001
0
LINE
8
0
10
63.5
20
-91.10001
11
63.5
21
-68.9
0
LINE
8
0
10
59.1
20
-68.9
11
63.5
21
-68.9
0
LINE
8
0
10
63.7
20
-68.9
11
63.7
21
-91.10001
0
LINE
8
0
10
63.7
20
-91.10001
11
68.1
21
-91.10001
0
LINE
8
0
10
68.1
20
-91.10001
11
68.1
21
-68.9
0
LINE
8
0
10
63.7
20
-68.9
11
68.1
21
-68.9
0
LINE
8
0
10
68.3
20
-68.9
11
68.3
21
-91.10001
0
LINE
8
0
10
68.3
20
-91.10001
11
72.7
21
-91.10001
0
LINE
8
0
10
72.7
20
-91.10001
11
72.7
21
-68.9
0
LINE
8
0
10
68.3
20
-68.9
11
72.7
21
-68.9
0
LINE
8
0
10
55.2
20
-68.1
11
55.2
21
-68.7
0
LINE
8
0
10
55.2
20
-68.7
11
58.1
21
-68.7
0
LINE
8
0
10
58.1
20
-68.7
11
58.1
21
-68.1
0
LINE
8
0
10
55.2
20
-68.1
11
58.1
21
-68.1
0
LINE
8
0
10
59.8
20
-68.1
11
59.8
21
-68.7
0
LINE
8
0
10
59.8
20
-68.7
11
62.7
21
-68.7
0
LINE
8
0
10
62.7
20
-68.7
11
62.7
21
-68.1
0
LINE
8
0
10
59.8
20
-68.1
11
62.7
21
-68.1
0
LINE
8
0
10
64.4
20
-68.1
11
64.4
21
-68.7
0
LINE
8
0
10
64.4
20
-68.7
11
67.3
21
-68.7
0
LINE
8
0
10
67.3
20
-68.7
11
67.3
21
-68.1
0
LINE
8
0
10
64.4
20
-68.1
11
67.3
21
-68.1
0
LINE
8
0
10
60.2
20
-67.1
11
60.2
21
-68.1
0
LINE
8
0
10
60.2
20
-68.1
11
62.5
21
-68.1
0
LINE
8
0
10
62.5
20
-68.1
11
62.5
21
-67.1
0
LINE
8
0
10
60.2
20
-67.1
11
62.5
21
-67.1
0
LINE
8
0
10
64.8
20
-67.1
11
64.8
21
-68.1
0
LINE
8
0
10
64.8
20
-68.1
11
67.10001
21
-68.1
0
LINE
8
0
10
67.10001
20
-68.1
11
67.10001
21
-67.1
0
LINE
8
0
10
64.8
20
-67.1
11
67.10001
21
-67.1
0
LINE
8
0
10
83.7
20
-68.9
30
0
11
83.7
21
-91.1
31
0
0
LINE
8
0
10
84.2
20
-68.9
30
0
11
84.2
21
-91.1
31
0
0
LINE
8
0
10
74.1
20
-71.1
11
74.1
21
-89
0
LINE
8
0
10
74.1
20
-89
11
83.1
21
-89
0
LINE
8
0
10
83.1
20
-89
11
83.1
21
-71.1
0
LINE
8
0
10
74.1
20
-71.1
11
83.1
21
-71.1
0
CIRCLE
8
0
10
52.1
20
-71.3
40
1.1
0
CIRCLE
8
0
10
61.4
20
-80
40
1.4
0
LINE
8
0
10
60.6
20
-79.1
11
60.6
21
-80.9
0
LINE
8
0
10
60.6
20
-80.9
11
62.4
21
-80.9
0
LINE
8
0
10
62.4
20
-80.9
11
62.4
21
-79.1
0
LINE
8
0
10
60.6
20
-79.1
11
62.4
21
-79.1
0
LINE
8
0
10
50.6
20
-68.1
11
50.6
21
-68.7
0
LINE
8
0
10
50.6
20
-68.7
11
53.5
21
-68.7
0
LINE
8
0
10
53.5
20
-68.7
11
53.5
21
-68.1
0
LINE
8
0
10
50.6
20
-68.1
11
53.5
21
-68.1
0
LINE
8
0
10
69
20
-68.1
11
69
21
-68.7
0
LINE
8
0
10
69
20
-68.7
11
71.9
21
-68.7
0
LINE
8
0
10
71.9
20
-68.7
11
71.9
21
-68.1
0
LINE
8
0
10
69
20
-68.1
11
71.9
21
-68.1
0
CIRCLE
8
0
10
46.3
20
-80
40
1.8
0
CIRCLE
8
0
10
46.3
20
-80
40
1.3
0
CIRCLE
8
0
10
46.3
20
-80
40
0.4
0
LINE
8
0
10
46.3
20
-78.3
30
0
11
44.3
21
-78.3
31
0
0
LINE
8
0
10
46.3
20
-81.8
30
0
11
44.3
21
-81.7
31
0
0
CIRCLE
8
0
10
87.3
20
-80
40
1.8
0
CIRCLE
8
0
10
87.3
20
-80
40
1.3
0
CIRCLE
8
0
10
87.3
20
-80
40
0.4
0
LINE
8
0
10
87.3
20
-81.8
30
0
11
89.2
21
-81.8
31
0
0
LINE
8
0
10
87.3
20
-78.3
30
0
11
89.3
21
-78.3
31
0
0
LINE
8
0
10
50.5
20
-91.4
11
50.5
21
-92
0
LINE
8
0
10
50.5
20
-92
11
53.4
21
-92
0
LINE
8
0
10
53.4
20
-92
11
53.4
21
-91.4
0
LINE
8
0
10
50.5
20
-91.4
11
53.4
21
-91.4
0
LINE
8
0
10
51
20
-92
11
51
21
-93
0
LINE
8
0
10
51
20
-93
11
53.3
21
-93
0
LINE
8
0
10
53.3
20
-93
11
53.3
21
-92
0
LINE
8
0
10
51
20
-92
11
53.3
21
-92
0
LINE
8
0
10
55.2
20
-91.4
11
55.2
21
-92
0
LINE
8
0
10
55.2
20
-92
11
58.1
21
-92
0
LINE
8
0
10
58.1
20
-92
11
58.1
21
-91.4
0
LINE
8
0
10
55.2
20
-91.4
11
58.1
21
-91.4
0
LINE
8
0
10
55.6
20
-92
11
55.6
21
-93
0
LINE
8
0
10
55.6
20
-93
11
57.9
21
-93
0
LINE
8
0
10
57.9
20
-93
11
57.9
21
-92
0
LINE
8
0
10
55.6
20
-92
11
57.9
21
-92
0
LINE
8
0
10
59.8
20
-91.5
11
59.8
21
-92.1
0
LINE
8
0
10
59.8
20
-92.1
11
62.7
21
-92.1
0
LINE
8
0
10
62.7
20
-92.1
11
62.7
21
-91.5
0
LINE
8
0
10
59.8
20
-91.5
11
62.7
21
-91.5
0
LINE
8
0
10
60.2
20
-92
11
60.2
21
-93
0
LINE
8
0
10
60.2
20
-93
11
62.5
21
-93
0
LINE
8
0
10
62.5
20
-93
11
62.5
21
-92
0
LINE
8
0
10
60.2
20
-92
11
62.5
21
-92
0
LINE
8
0
10
64.4
20
-91.5
11
64.4
21
-92.1
0
LINE
8
0
10
64.4
20
-92.1
11
67.3
21
-92.1
0
LINE
8
0
10
67.3
20
-92.1
11
67.3
21
-91.5
0
LINE
8
0
10
64.4
20
-91.5
11
67.3
21
-91.5
0
LINE
8
0
10
64.8
20
-92
11
64.8
21
-93
0
LINE
8
0
10
64.8
20
-93
11
67.10001
21
-93
0
LINE
8
0
10
67.10001
20
-93
11
67.10001
21
-92
0
LINE
8
0
10
64.8
20
-92
11
67.10001
21
-92
0
LINE
8
0
10
69
20
-91.5
11
69
21
-92.1
0
LINE
8
0
10
69
20
-92.1
11
71.9
21
-92.1
0
LINE
8
0
10
71.9
20
-92.1
11
71.9
21
-91.5
0
LINE
8
0
10
69
20
-91.5
11
71.9
21
-91.5
0
LINE
8
0
10
69.4
20
-92
11
69.4
21
-93
0
LINE
8
0
10
69.4
20
-93
11
71.7
21
-93
0
LINE
8
0
10
71.7
20
-93
11
71.7
21
-92
0
LINE
8
0
10
69.4
20
-92
11
71.7
21
-92
0
LINE
8
0
10
88.7
20
-78.1
11
88.7
21
-68.8
0
LINE
8
0
10
88.7
20
-68.8
11
73.7
21
-68.8
0
LINE
8
0
10
73.7
20
-68.8
11
73.7
21
-91.1
0
LINE
8
0
10
73.7
20
-91.1
11
88.7
21
-91.1
0
LINE
8
0
10
88.7
20
-91.1
11
88.7
21
-81.8
0
TEXT
8
0
62
7
10
1
20
-116.916666666667
40
5.9375
50
0
1
CABEÇA REDE TEKA
7
TextSytle
0
ENDBLK
0
ENDSEC
0
SECTION
2
ENTITIES
0
INSERT
8
0
2
RGCC1
10
192
20
-296
30
0
50
0
0
INSERT
8
0
2
ATI1
10
344
20
-168
30
0
50
0
0
INSERT
8
0
2
T1
10
416
20
-256
30
0
50
0
0
LINE
8
0
10
424
20
-256
11
360
21
-256
0
LINE
8
0
10
360
20
-256
11
360
21
-240
0
INSERT
8
0
2
T2
10
472
20
-256
30
0
50
0
0
LINE
8
0
10
480
20
-256
11
480
21
-248
0
LINE
8
0
10
480
20
-248
11
368
21
-248
0
LINE
8
0
10
368
20
-248
11
368
21
-240
0
INSERT
8
0
2
T3
10
528
20
-256
30
0
50
0
0
LINE
8
0
10
536
20
-256
11
536
21
-232
0
LINE
8
0
10
536
20
-232
11
376
21
-232
0
INSERT
8
0
2
T4
10
584
20
-256
30
0
50
0
0
LINE
8
0
10
592
20
-256
11
592
21
-224
0
LINE
8
0
10
592
20
-224
11
376
21
-224
0
INSERT
8
0
2
T5
10
696
20
-256
30
0
50
0
0
LINE
8
0
10
704
20
-256
11
704
21
-216
0
LINE
8
0
10
704
20
-216
11
376
21
-216
0
INSERT
8
0
2
T6
10
752
20
-256
30
0
50
0
0
LINE
8
0
10
760
20
-256
11
760
21
-208
0
LINE
8
0
10
760
20
-208
11
376
21
-208
0
INSERT
8
0
2
T9
10
808
20
-256
30
0
50
0
0
LINE
8
0
10
816
20
-256
11
816
21
-184
0
LINE
8
0
10
816
20
-184
11
376
21
-184
0
INSERT
8
0
2
T10
10
864
20
-256
30
0
50
0
0
LINE
8
0
10
872
20
-256
11
872
21
-176
0
LINE
8
0
10
872
20
-176
11
376
21
-176
0
LINE
8
0
10
224
20
-320
11
288
21
-320
0
LINE
8
0
10
288
20
-320
11
288
21
-208
0
LINE
8
0
10
288
20
-208
11
344
21
-208
0
INSERT
8
0
2
T11
10
640
20
-256
30
0
50
0
0
LINE
8
0
10
376
20
-200
11
648
21
-200
0
LINE
8
0
10
648
20
-200
11
648
21
-256
0
TEXT
8
0
62
5
10
168
20
-325
40
3.75
50
0
1
RGCC1
7
TextSytle
0
TEXT
8
0
62
5
10
352
20
-157
40
3.75
50
0
1
ATI1
7
TextSytle
0
TEXT
8
0
62
5
10
352
20
-163
40
3.75
50
0
1
2901937
7
TextSytle
0
TEXT
8
0
62
5
10
368
20
-285
40
3.75
50
0
1
T SALA PISO 2 (+F)
7
TextSytle
0
TEXT
8
0
62
5
10
368
20
-291
40
3.75
50
0
1
290575
7
TextSytle
0
TEXT
8
0
62
5
10
424
20
-261
40
3.75
50
0
1
20.87m(2901083)
7
TextSytle
0
TEXT
8
0
62
5
10
440
20
-285
40
3.75
50
0
1
T QUARTO 2 PISO 2
7
TextSytle
0
TEXT
8
0
62
5
10
440
20
-291
40
3.75
50
0
1
290575
7
TextSytle
0
TEXT
8
0
62
5
10
480
20
-261
40
3.75
50
0
1
21.99m(2901083)
7
TextSytle
0
TEXT
8
0
62
5
10
512
20
-285
40
3.75
50
0
1
T VARANDA PISO1
7
TextSytle
0
TEXT
8
0
62
5
10
512
20
-291
40
3.75
50
0
1
290575
7
TextSytle
0
TEXT
8
0
62
5
10
536
20
-261
40
3.75
50
0
1
22.07m(2901083)
7
TextSytle
0
TEXT
8
0
62
5
10
576
20
-285
40
3.75
50
0
1
T ZAP PISO 0
7
TextSytle
0
TEXT
8
0
62
5
10
576
20
-291
40
3.75
50
0
1
290575
7
TextSytle
0
TEXT
8
0
62
5
10
592
20
-261
40
3.75
50
0
1
6.11m(2901083)
7
TextSytle
0
TEXT
8
0
62
5
10
688
20
-285
40
3.75
50
0
1
T SALA PISO 1
7
TextSytle
0
TEXT
8
0
62
5
10
688
20
-291
40
3.75
50
0
1
290575
7
TextSytle
0
TEXT
8
0
62
5
10
704
20
-261
40
3.75
50
0
1
23.1m(2901083)
7
TextSytle
0
TEXT
8
0
62
5
10
744
20
-285
40
3.75
50
0
1
T QUARTO1 PISO2
7
TextSytle
0
TEXT
8
0
62
5
10
744
20
-291
40
3.75
50
0
1
290575
7
TextSytle
0
TEXT
8
0
62
5
10
760
20
-261
40
3.75
50
0
1
7.82m(2901083)
7
TextSytle
0
TEXT
8
0
62
5
10
800
20
-285
40
3.75
50
0
1
T HALL PISO1
7
TextSytle
0
TEXT
8
0
62
5
10
800
20
-291
40
3.75
50
0
1
290575
7
TextSytle
0
TEXT
8
0
62
5
10
816
20
-261
40
3.75
50
0
1
11.05m(2901083)
7
TextSytle
0
TEXT
8
0
62
5
10
856
20
-285
40
3.75
50
0
1
T QUARTO PISO1 (-F)
7
TextSytle
0
TEXT
8
0
62
5
10
856
20
-291
40
3.75
50
0
1
290575
7
TextSytle
0
TEXT
8
0
62
5
10
880
20
-261
40
3.75
50
0
1
19.3m(2901083)
7
TextSytle
0
TEXT
8
0
62
5
10
224
20
-325
40
3.75
50
0
1
12m(2901083)
7
TextSytle
0
TEXT
8
0
62
5
10
632
20
-285
40
3.75
50
0
1
T ZAP PISO 0
7
TextSytle
0
TEXT
8
0
62
5
10
632
20
-291
40
3.75
50
0
1
290575
7
TextSytle
0
TEXT
8
0
62
5
10
648
20
-261
40
3.75
50
0
1
6.12m(2901083)
7
TextSytle
0
INSERT
8
0
2
HE1
10
160
20
-176
30
0
50
0
0
TEXT
8
0
62
5
10
160
20
-181
40
3.75
50
0
1
HE1
7
TextSytle
0
TEXT
8
0
62
5
10
160
20
-187
40
3.75
50
0
1
CR p/ Moradia
7
TextSytle
0
ENDSEC
0
EOF
